# xmcd
#
# Track frame offsets:
#	150
#	15127
#	31293
#	54400
#	74102
#	90573
#	99533
#	115338
#	131578
#	147058
#	161129
#	171057
#	185271
#	197234
#	211074
#	223286
#
# Disc length: 3243 seconds
#
# Revision: 0
# Processed by: cddbd v1.5.1PL0 Copyright (c) Steve Scherf et al.
# Submitted via: EasyCDDAExtractor 8.1.4.1
#
DISCID=e30ca910
DTITLE=B.B. King - B.B. Boogie
DYEAR=1900
DGENRE=Blues
TTITLE0=BB Boogie
TTITLE1=The Letter
TTITLE2=Everyday I Have The Blues
TTITLE3=Sweet Sixteen
TTITLE4=The Other Night Blues
TTITLE5=A New Way Of Driving
TTITLE6=Walkin And Cryin
TTITLE7=Its My Own Fault Baby
TTITLE8=Precious Lord
TTITLE9=Servants Prayer
TTITLE10=Swing Low Sweet Chariot Rock Mo Lord
TTITLE11=Save A Seat For Me
TTITLE12=I Never Heard A Man
TTITLE13=Army Of The Lord
TTITLE14=Paying The Cost To Be The Boss
TTITLE15=Blue Can You Get
EXTD=
EXTT0=
EXTT1=
EXTT2=
EXTT3=
EXTT4=
EXTT5=
EXTT6=
EXTT7=
EXTT8=
EXTT9=
EXTT10=
EXTT11=
EXTT12=
EXTT13=
EXTT14=
EXTT15=
PLAYORDER=
